<svg height="368pt" viewBox="0 0 368 368" width="368pt" xmlns="http://www.w3.org/2000/svg"><g fill="#cce4ff"><path d="m340.800781 264c12.320313-24 19.199219-51.199219 19.199219-80h-96c0 28.800781-3.121094 56-8.800781 80zm0 0"/><path d="m255.199219 104c-13.199219-56.960938-40.160157-96-71.199219-96s-58 39.039062-71.199219 96c-5.679687 24-8.800781 51.199219-8.800781 80h160c0-28.800781-3.121094-56-8.800781-80zm0 0"/><path d="m184 360c31.039062 0 58-39.039062 71.199219-96h-142.398438c13.199219 56.960938 40.160157 96 71.199219 96zm0 0"/><path d="m112.800781 264c-5.679687-24-8.800781-51.199219-8.800781-80h-96c0 28.800781 6.878906 56 19.199219 80zm0 0"/></g><path d="m184 0c-69.472656 0-132.273438 38.457031-163.910156 100.34375-13.328125 25.96875-20.089844 54.113281-20.089844 83.65625s6.761719 57.6875 20.078125 83.640625c31.648437 61.902344 94.449219 100.359375 163.921875 100.359375s132.273438-38.457031 163.910156-100.34375c13.328125-25.96875 20.089844-54.113281 20.089844-83.65625s-6.761719-57.6875-20.078125-83.640625c-31.648437-61.902344-94.449219-100.359375-163.921875-100.359375zm151.753906 256h-70.769531c4.078125-20.144531 6.367187-41.574219 6.808594-64h79.984375c-1.035156 22.433594-6.425782 43.894531-16.023438 64zm-151.753906 96c-24.289062 0-47.695312-31.054688-60.953125-80h121.898437c-13.234374 48.9375-36.65625 80-60.945312 80zm-64.671875-96c-4.28125-20.015625-6.664063-41.472656-7.121094-64h143.578125c-.457031 22.519531-2.839844 43.96875-7.128906 64zm-87.082031 0c-9.597656-20.097656-14.988282-41.558594-16.023438-64h79.984375c.441407 22.433594 2.730469 43.863281 6.800781 64zm0-144h70.769531c-4.078125 20.144531-6.367187 41.574219-6.808594 64h-79.984375c1.035156-22.441406 6.425782-43.894531 16.023438-64zm151.753906-96c24.289062 0 47.695312 31.054688 60.953125 80h-121.898437c13.234374-48.9375 36.65625-80 60.945312-80zm64.671875 96c4.28125 20.015625 6.664063 41.472656 7.121094 64h-143.585938c.457031-22.519531 2.839844-43.96875 7.128907-64zm23.121094 64c-.441407-22.433594-2.730469-43.871094-6.800781-64h70.761718c9.597656 20.097656 14.988282 41.558594 16.015625 64zm55.296875-80h-65.65625c-8.273438-32.441406-20.753906-58.144531-35.792969-74.726562 41.925781 10.648437 78.34375 37.101562 101.449219 74.726562zm-184.730469-74.726562c-15.046875 16.582031-27.527344 42.285156-35.785156 74.726562h-65.652344c23.09375-37.617188 59.511719-64.078125 101.4375-74.726562zm-101.4375 250.726562h65.644531c8.273438 32.441406 20.753906 58.144531 35.792969 74.726562-41.925781-10.648437-78.335937-37.109374-101.4375-74.726562zm184.71875 74.726562c15.046875-16.582031 27.527344-42.285156 35.785156-74.726562h65.652344c-23.09375 37.617188-59.511719 64.078125-101.4375 74.726562zm0 0" fill="#007aff"/></svg>